<svg width="3840" height="1920" xmlns="http://www.w3.org/2000/svg" xmlns:xlink="http://www.w3.org/1999/xlink" overflow="hidden"><g><rect x="0" y="0" width="3840" height="1920" fill="#FFFFFF"/><rect x="0" y="0" width="3840" height="1920" fill="#E2F3FA"/><rect x="1513" y="557" width="1051" height="872" fill="#46B1E1"/><path d="M2459.5 473.5 2459.5 1327.62" stroke="#747474" stroke-width="22.6667" stroke-miterlimit="8" fill="none" fill-rule="evenodd"/><path d="M1648.5 1317.5 2471.75 1317.5" stroke="#747474" stroke-width="22.6667" stroke-miterlimit="8" fill="none" fill-rule="evenodd"/><path d="M1429.5 473.5 2468.05 473.5" stroke="#747474" stroke-width="22.6667" stroke-miterlimit="8" fill="none" fill-rule="evenodd"/><path d="M1426.5 463.5 1426.5 1036.29" stroke="#747474" stroke-width="22.6667" stroke-miterlimit="8" fill="none" fill-rule="evenodd"/><text fill="#FFFFFF" font-family="Aptos,Aptos_MSFontService,sans-serif" font-weight="400" font-size="172" transform="translate(1643.1 879)">COMING</text><text fill="#FFFFFF" font-family="Aptos,Aptos_MSFontService,sans-serif" font-weight="400" font-size="223" transform="translate(1672.52 1132)">SOON</text><path d="M1306 1168C1306 1134.31 1333.53 1107 1367.5 1107 1401.47 1107 1429 1134.31 1429 1168 1429 1201.69 1401.47 1229 1367.5 1229 1333.53 1229 1306 1201.69 1306 1168Z" fill="#96DCF8" fill-rule="evenodd"/><path d="M1431 1106.5C1431 1067.56 1462.56 1036 1501.5 1036 1540.44 1036 1572 1067.56 1572 1106.5 1572 1145.44 1540.44 1177 1501.5 1177 1462.56 1177 1431 1145.44 1431 1106.5Z" fill="#B5E7F9" fill-rule="evenodd"/><path d="M1276 1281.5C1276 1254.71 1297.71 1233 1324.5 1233 1351.29 1233 1373 1254.71 1373 1281.5 1373 1308.29 1351.29 1330 1324.5 1330 1297.71 1330 1276 1308.29 1276 1281.5Z" fill="#6CD0F4" fill-rule="evenodd"/><path d="M1322 1376C1322 1355.01 1339.01 1338 1360 1338 1380.99 1338 1398 1355.01 1398 1376 1398 1396.99 1380.99 1414 1360 1414 1339.01 1414 1322 1396.99 1322 1376Z" fill="#50C8F2" fill-rule="evenodd"/><path d="M1408 1424.5C1408 1406.55 1422.55 1392 1440.5 1392 1458.45 1392 1473 1406.55 1473 1424.5 1473 1442.45 1458.45 1457 1440.5 1457 1422.55 1457 1408 1442.45 1408 1424.5Z" fill="#1AB6EE" fill-rule="evenodd"/><path d="M1503 1418C1503 1403.64 1514.86 1392 1529.5 1392 1544.14 1392 1556 1403.64 1556 1418 1556 1432.36 1544.14 1444 1529.5 1444 1514.86 1444 1503 1432.36 1503 1418Z" fill="#11ADE5" fill-rule="evenodd"/><path d="M1556 1372.5C1556 1359.52 1566.3 1349 1579 1349 1591.7 1349 1602 1359.52 1602 1372.5 1602 1385.48 1591.7 1396 1579 1396 1566.3 1396 1556 1385.48 1556 1372.5Z" fill="#0F94C3" fill-rule="evenodd"/></g></svg>